<?xml version="1.0" encoding="utf-8"?>
<!-- Generator: Adobe Illustrator 19.2.1, SVG Export Plug-In . SVG Version: 6.00 Build 0)  -->
<svg version="1.1" id="layer" xmlns="http://www.w3.org/2000/svg" xmlns:xlink="http://www.w3.org/1999/xlink" x="0px" y="0px"
	 viewBox="0 0 652 652" style="enable-background:new 0 0 652 652;" xml:space="preserve">
<style type="text/css">
	.st0{fill:#AFAFAF;}
	.st1{fill:#D9D9D9;}
	.st2{fill:#434C4F;}
	.st3{fill:#424A4D;}
	.st4{fill:#444D50;}
</style>
<g id="Group_28302" transform="translate(-461.7 -498.896)">
	<path id="Path_17641" class="st0" d="M621.5,754.1c-0.7,1.7-1.9,3.3-3.3,4.5c-13.5,13.6-27.1,27.1-40.3,40.9
		c-7.8,8.2-16.1,16.1-24,24.3c-10.8,11.5-22.3,22.3-33.1,33.7c-11.7,12.1-23.8,23.7-35.4,36c-0.5,0.4-0.8,0.8-1.1,1.3
		c-1.5-0.1-1.8-1.3-2-2.5c-0.1-0.7-0.1-1.5-0.1-2.2v-32.5c-0.1-4.3,1.7-8.3,4.7-11.3c6.8-7,13.8-13.7,20.5-20.8
		c9.2-9.7,18.9-18.9,28.1-28.6c7.2-7.5,14.6-14.8,21.8-22.2c8.1-8.2,16.1-16.3,24.1-24.6c3-3.2,7.4-4.4,11.6-3.3
		c7.7,1.5,15.5,3.2,23.2,4.7C618.2,751.8,620,752.7,621.5,754.1z"/>
	<path id="Path_17642" class="st1" d="M627.3,794.1c-5,5.3-10.3,10.3-15.4,15.4c-1.8,1.7-3.5,3.5-5.1,5.4c-1.4,1.6-3,3-4.7,4.3
		c-8.6,8.6-17.2,17.1-25.7,25.7c-4,4-8.4,7.7-12.3,11.8c-1.9,2-3.5,4.1-5.5,6c-9.8,9.1-19,18.9-28.6,28.2c-2.7,2.5-6.2,4-9.8,4.1
		c-11.2,0.6-22.3,0.4-33.4,0.4c-0.9,0-1.9,0.3-2.5-0.4c0.3-0.5,0.6-1,1.1-1.3c11.6-12.3,23.7-23.8,35.4-36
		c10.9-11.4,22.3-22.2,33.1-33.7c7.8-8.3,16-16.1,24-24.3c13.3-13.8,26.8-27.3,40.3-40.9c1.5-1.2,2.6-2.8,3.3-4.5
		c2.1,1.6,3.5,3.9,3.9,6.5c1,4.7,1.5,9.6,2.7,14.2c0.8,3.2,1.2,6.4,2,9.6C630.9,788,629.8,791.6,627.3,794.1z"/>
	<path id="Path_17643" class="st2" d="M1067.8,846.5c-0.4-0.6-0.9-1.2-1.3-1.8c-1-1.5-1-1.7,0.7-2.2c0.8-0.2,1.6-0.5,2.3-0.8
		c3.5-1.4,6.3-4.1,7.7-7.6c3.5-8-0.1-17.3-8.1-20.8c-1-0.4-2.1-0.8-3.1-1c-2.6-0.5-5.2-0.8-7.8-0.8h-17.8c-2.4,0-2.4,0-2.4,2.4v50
		c0,3.2-0.3,2.9,3,2.9h5.4c3.5,0,3.1,0.4,3.1-3.2v-17.8c0-1.8,0.6-2.1,2.1-1.5c1.5,0.5,2.8,1.5,3.6,2.9c1,1.3,2,2.7,2.9,4
		c3.1,4.7,6.2,9.5,9.3,14.4c0.4,0.7,0.8,1.4,1.9,1.4h13C1077.3,859.7,1072.7,852.9,1067.8,846.5z M1061.6,834.7
		c-3.8,0.8-7.6,1.1-11.5,0.8c-0.9,0-0.9-0.8-0.9-1.4v-6.2l0,0v-6.2c0-0.8,0.2-1.3,1.1-1.3c3.5-0.3,7-0.1,10.4,0.6
		c3.9,0.8,6.5,4.6,5.7,8.5c-0.1,0.6-0.3,1.3-0.6,1.9C1064.9,832.9,1063.4,834.2,1061.6,834.7z"/>
	<path id="Path_17644" class="st3" d="M986.5,866.7h-31.7c-2.7,0-2.5,0.3-2.5-2.5v-51.6c0-1,0.4-1.3,1.3-1.2h31.7
		c2.1,0,2.1,0,1.7,2.1c-0.2,1.4-0.6,2.9-0.8,4.4c-0.6,3.2-0.6,2.7-3.1,2.7h-17.8c-1,0-1.5,0.3-1.5,1.4v9.9c0,1.3,0.7,1.4,1.8,1.4
		h15.4c0.8,0,1.2,0.3,1.2,1.1v6.7c0,1-0.4,1.3-1.3,1.3H966c-1.9,0-2,0.1-2,2v10.6c0,2,0,2,2.2,2h19.3c3.1,0,2.8-0.3,2.8,2.8
		c0,1.8-0.1,3.4,0,5.2C988.4,866.4,987.8,866.7,986.5,866.7z"/>
	<path id="Path_17645" class="st3" d="M813.6,866.7h-31.3c-2,0-2,0-2-2.1v-52c0-0.9,0.4-1.2,1.2-1.1H814c0.9,0,1.4,0.3,1.2,1.3
		c-0.4,2.2-0.8,4.4-1.2,6.6c-0.2,1.2-1.1,1.2-2,1.2h-15.9c-4.3,0-4.3,0-4.3,4.3v6.4c0,1.9,0.1,2,2,2h13.6c3,0,2.8-0.1,2.8,2.7
		c0,1.7-0.1,3.3,0,5c0,1.2-0.4,1.5-1.5,1.5h-13.8c-2.8,0-2.8,0-2.8,2.7v9.2c0,2.8,0,2.8,2.9,2.8H814c2.2,0,2.2,0,2.2,2.3v4.7
		C816.2,866.9,816.5,866.7,813.6,866.7z"/>
	<path id="Path_17646" class="st2" d="M909.2,811.4c-1.9,4.6-3.4,8.9-5.1,13.1c-5.2,13.3-10.4,26.6-15.6,39.9
		c-0.2,0.5-0.4,0.9-0.6,1.4c-0.2,0.9-1,1.5-1.9,1.3c0,0,0,0-0.1,0c-2.4-0.1-4.7-0.1-7.2,0c-1.4,0.1-2-0.4-2.5-1.8
		c-2.2-6-4.5-11.9-6.8-17.8c-4.3-11.3-8.6-22.5-12.9-33.7c-0.4-0.6-0.5-1.4-0.6-2.1c0.4-0.6,1.1-0.3,1.7-0.3h9.2
		c1.1-0.2,2.1,0.6,2.3,1.7c1,3.1,2.2,6.1,3.2,9.1c2.9,8.2,6.1,16.2,8.5,24.6c0.3,1.2,0.7,2.4,0.9,3.6c0.1,0.4,0.2,1,0.9,1.1
		c0.6-1.3,1.1-2.7,1.3-4.2c2.2-7.8,5.6-15.4,8.4-23c1.3-3.8,2.9-7.4,4.2-11c0.2-1.2,1.4-1.9,2.5-1.7c0,0,0,0,0,0
		C902.2,811.5,905.4,811.4,909.2,811.4z"/>
	<path id="Path_17647" class="st0" d="M626.1,894.9c-0.9,0.3-1.8,0.4-2.7,0.3h-59.9c-1.1,0.1-2.2-0.1-3.2-0.3
		c-1.4-0.6-1.8-1.4-0.8-2.7c0.4-0.5,0.9-1,1.3-1.4c6.4-6,12.6-12.1,19.1-17.9c3.1-2.8,6-5.9,9.3-8.5c2-2,5.2-2.2,7.4-0.4
		c0.6,0.3,1.1,0.8,1.5,1.2c6.3,5.9,12.4,11.8,18.8,17.6c3.1,2.8,5.9,5.7,9.1,8.4c0.4,0.3,0.7,0.7,1,1.1
		C627.8,893.6,627.5,894.3,626.1,894.9z"/>
	<path id="Path_17648" class="st4" d="M733.9,858.7c-0.6,2.2-1,4.3-1.5,6.5c-0.1,0.9-0.9,1.6-1.8,1.6c0,0-0.1,0-0.1,0h-29.3
		c-1.5,0-1.5-0.1-1.5-2v-50.8c0-2.5-0.3-2.5,2.5-2.5h7.6c1.1,0,1.5,0.4,1.4,1.4v42.6c0.1,1.7,0.1,1.8,1.9,1.8h19.3
		C733.8,857.1,734.1,857.7,733.9,858.7z"/>
</g>
</svg>
