<svg width="112" height="24" viewBox="0 0 112 24" fill="none" xmlns="http://www.w3.org/2000/svg">
<path d="M13.4244 13.9311C13.4244 15.0135 13.6752 15.9639 14.1768 16.7823C14.6652 17.5743 15.3318 18.1881 16.1766 18.6237C17.0214 19.0593 17.9322 19.2771 18.909 19.2771C19.8858 19.2771 20.7966 19.0593 21.6414 18.6237C22.4862 18.1881 23.1462 17.5677 23.6214 16.7625C24.1098 15.9573 24.354 15.0135 24.354 13.9311C24.354 12.8355 24.1098 11.8851 23.6214 11.0799C23.1462 10.3011 22.4928 9.70709 21.6612 9.29789C20.8428 8.88869 19.9254 8.68409 18.909 8.68409C17.919 8.68409 17.0082 8.88869 16.1766 9.29789C15.3186 9.70709 14.6454 10.3143 14.157 11.1195C13.6686 11.9115 13.4244 12.8487 13.4244 13.9311ZM58.5486 22.5441V17.8713C58.8522 18.3861 59.2812 18.7425 59.8356 18.9405C60.4032 19.1385 61.116 19.2375 61.974 19.2375C62.436 19.2375 62.8848 19.1781 63.3204 19.0593C63.7692 18.9537 64.152 18.7887 64.4688 18.5643C65.1684 18.1287 65.7096 17.5149 66.0924 16.7229C66.4884 15.9177 66.6864 14.9937 66.6864 13.9509C66.6864 12.9477 66.495 12.0303 66.1122 11.1987C65.7162 10.4067 65.1618 9.79949 64.449 9.37709C63.7362 8.94149 62.9112 8.72369 61.974 8.72369C61.0896 8.72369 60.357 8.86229 59.7762 9.13949C59.1954 9.41669 58.7268 9.82589 58.3704 10.3671V9.0009H56.133V22.5441H58.5486ZM49.3416 19.3563C49.236 19.6467 49.1238 19.8645 49.005 20.0097C48.7014 20.4321 48.147 20.6433 47.3418 20.6433C46.9458 20.6433 46.6356 20.6169 46.4112 20.5641L47.223 22.4649C47.2494 22.4781 47.4738 22.4847 47.8962 22.4847C48.6222 22.4847 49.2096 22.3659 49.6584 22.1283C50.0808 21.9039 50.4372 21.5739 50.7276 21.1383C51.018 20.7027 51.3216 20.0559 51.6384 19.1979L55.3212 9.0009H52.9056C52.0212 11.4429 51.2292 13.8717 50.5296 16.2873C49.8564 14.0829 49.038 11.6541 48.0744 9.0009H45.54L49.3416 19.3563ZM15.8598 13.9113C15.8598 12.8553 16.1172 12.0501 16.632 11.4957C17.1468 10.9413 17.886 10.6641 18.8496 10.6641C19.8132 10.6641 20.559 10.9413 21.087 11.4957C21.615 12.0501 21.879 12.8553 21.879 13.9113C21.879 14.9937 21.615 15.8253 21.087 16.4061C20.559 16.9869 19.8132 17.2773 18.8496 17.2773C17.8992 17.2773 17.16 16.9935 16.632 16.4259C16.1172 15.8451 15.8598 15.0069 15.8598 13.9113ZM58.4892 13.9311C58.5156 12.9279 58.7796 12.1425 59.2812 11.5749C59.796 10.9941 60.5022 10.7037 61.3998 10.7037C62.2974 10.7037 62.997 10.9941 63.4986 11.5749C64.0002 12.1557 64.2576 12.9411 64.2708 13.9311C64.2576 14.9343 64.0002 15.7329 63.4986 16.3269C62.997 16.9077 62.2974 17.1981 61.3998 17.1981C60.5022 17.1981 59.796 16.9077 59.2812 16.3269C58.7796 15.7329 58.5156 14.9343 58.4892 13.9311ZM11.1078 4.94189L6.91019 10.5057H4.79159V4.94189H1.64339L0.37619 7.29809H2.27699V18.9999H4.79159V12.6837H6.91019L11.3256 18.9999H14.1966L9.06839 11.5947L13.959 4.94189H11.1078ZM28.0368 18.9999V14.7825H32.1354V18.9999H34.5114V9.0009H32.1354V12.8025H28.0368V9.0009H25.641V18.9999H28.0368ZM38.9268 10.9017V18.9999H41.3622V10.9017H44.7678V9.0009H35.5608V10.9017H38.9268Z" fill="#222222"/>
<path d="M111.635 18.9999H109.695L106.19 14.5845H104.468V18.9999H102.765V9.0009H104.468V13.1985H106.21L109.497 9.0009H111.319L107.576 13.8123L111.635 18.9999Z" fill="#2291FF"/>
<path d="M91.0878 19.0593L90.6918 18.9801V17.5347C90.8634 17.5875 91.0746 17.6139 91.3254 17.6139C91.695 17.6139 91.9722 17.5149 92.157 17.3169C92.3418 17.1057 92.4672 16.7493 92.5332 16.2477C92.6124 15.5085 92.6586 14.7759 92.6718 14.0499L92.7906 9.0009H100.196V18.9999H98.493V10.3869H94.3152L94.2162 14.1687C94.1766 15.5679 94.0908 16.5645 93.9588 17.1585C93.8136 17.8449 93.5496 18.3399 93.1668 18.6435C92.784 18.9471 92.223 19.0989 91.4838 19.0989L91.0878 19.0593Z" fill="#2291FF"/>
<path d="M90.1073 13.9311V14.0103C90.1073 15.0399 89.8829 15.9573 89.4341 16.7625C88.9985 17.5545 88.3847 18.1683 87.5927 18.6039C86.8139 19.0527 85.9097 19.2771 84.8801 19.2771C83.8505 19.2771 82.9397 19.0593 82.1477 18.6237C81.3557 18.1749 80.7419 17.5545 80.3063 16.7625C79.8575 15.9837 79.6331 15.0663 79.6331 14.0103V13.9311C79.6331 12.9147 79.8509 12.0171 80.2865 11.2383C80.7353 10.4463 81.3557 9.82589 82.1477 9.37709C82.9397 8.94149 83.8505 8.72369 84.8801 8.72369C85.8965 8.72369 86.8007 8.94149 87.5927 9.37709C88.3847 9.81269 89.0051 10.4265 89.4539 11.2185C89.8895 12.0105 90.1073 12.9147 90.1073 13.9311ZM81.3755 13.9311V14.0103C81.3755 14.7627 81.5207 15.4359 81.8111 16.0299C82.1015 16.6107 82.5107 17.0595 83.0387 17.3763C83.5799 17.6931 84.1937 17.8515 84.8801 17.8515C85.5797 17.8515 86.1935 17.6931 86.7215 17.3763C87.2495 17.0595 87.6587 16.6041 87.9491 16.0101C88.2263 15.4293 88.3649 14.7627 88.3649 14.0103V13.9311C88.3649 13.1787 88.2197 12.5187 87.9293 11.9511C87.6521 11.3835 87.2429 10.9413 86.7017 10.6245C86.1737 10.3077 85.5665 10.1493 84.8801 10.1493C84.2069 10.1493 83.6063 10.3077 83.0783 10.6245C82.5503 10.9281 82.1345 11.3703 81.8309 11.9511C81.5273 12.5319 81.3755 13.1919 81.3755 13.9311Z" fill="#2291FF"/>
<path d="M69.5346 4.94189H80.286V6.50609H75.8112V18.9999H73.9896V6.50609H69.5346V4.94189Z" fill="#2291FF"/>
</svg>
