<svg width="874" height="211" viewBox="0 0 874 211" fill="none" xmlns="http://www.w3.org/2000/svg">
<path d="M105.545 0H105.539C47.2515 0 0 46.2872 0 103.385V107.615C0 164.713 47.2515 211 105.539 211H105.545C163.833 211 211.084 164.713 211.084 107.615V103.385C211.084 46.2872 163.833 0 105.545 0Z" fill="#25CFE8"/>
<path d="M158.1 51.9642H134.384L107.148 91.1216H104.394L78.5364 51.9642H53.9023L89.5529 104.888L50.9951 159.036H75.3234L103.783 119.726H106.537L134.69 159.036H160.089L121.532 104.429L158.1 51.9642Z" fill="white"/>
<path d="M341.895 60.1714H322.429L300.073 92.3118H297.813L276.589 60.1714H256.368L285.631 103.612L253.982 148.056H273.951L297.311 115.791H299.571L322.68 148.056H343.527L311.879 103.235L341.895 60.1714Z" fill="#1D1D1F"/>
<path d="M471.261 109.678H442.752V85.5729H427.054V148.348H442.752V124.117H471.261V148.348H486.96V85.5729H471.261V109.678Z" fill="#1D1D1F"/>
<path d="M377.387 134.873C367.341 134.873 360.308 126.964 360.308 116.795C360.308 105.746 367.341 98.4642 377.387 98.4642C387.937 98.4642 394.97 105.746 394.97 116.795C394.97 126.964 387.937 134.873 377.387 134.873ZM395.472 91.935H394.844C391.579 87.6668 384.923 83.7747 375.503 83.7747C357.795 83.7747 344.106 98.4642 344.106 116.92C344.106 134.999 357.795 149.563 375.503 149.563C384.923 149.563 391.579 145.671 394.844 141.403H395.472L396.351 148.056H410.794V85.2813H396.351L395.472 91.935Z" fill="#1D1D1F"/>
<path d="M855.162 85.5727L836.951 126.251H835.319L815.224 85.5727H796.386L827.155 145.586L814.094 173.458H832.932L874 85.5727H855.162Z" fill="#1D1D1F"/>
<path d="M761.633 134.914C751.209 134.914 743.925 127.381 743.925 117.086C743.925 106.414 751.209 99.0067 761.633 99.0067C772.183 99.0067 779.593 106.414 779.593 117.086C779.593 127.381 772.183 134.914 761.633 134.914ZM761.633 84.0664C742.293 84.0664 727.975 98.7564 727.975 117.212C727.975 135.291 742.293 149.855 761.633 149.855C781.351 149.855 795.794 135.291 795.794 117.212C795.794 98.7564 781.351 84.0664 761.633 84.0664Z" fill="#1D1D1F"/>
<path d="M661.022 117.714C660.771 129.516 657.003 133.157 649.845 133.157H648.715V148.349C667.302 149.604 676.218 140.313 676.847 118.719L677.349 100.012H700.709V148.349H716.408V85.5734H661.776L661.022 117.714Z" fill="#1D1D1F"/>
<path d="M608.275 134.035V99.8851C619.202 99.8851 626.988 106.414 626.988 117.086C626.988 127.381 619.202 134.035 608.275 134.035ZM592.576 134.035C581.65 134.035 573.864 127.381 573.864 117.086C573.864 106.414 581.65 99.8851 592.576 99.8851V134.035ZM608.275 85.3219V60.4628H592.576V85.3219C572.858 85.3219 558.04 98.7555 558.04 117.086C558.04 135.291 572.858 148.599 592.576 148.599V173.709H608.275V148.599C627.992 148.599 642.812 135.291 642.812 117.086C642.812 98.7555 627.992 85.3219 608.275 85.3219Z" fill="#1D1D1F"/>
<path d="M498.631 100.011H518.097V148.348H533.796V100.011H553.388V85.5729H498.631V100.011Z" fill="#1D1D1F"/>
</svg>
