<?xml version="1.0" encoding="UTF-8"?> <svg xmlns="http://www.w3.org/2000/svg" width="327" height="62" viewBox="0 0 327 62" fill="none"><mask id="mask0_6694_138" style="mask-type:luminance" maskUnits="userSpaceOnUse" x="0" y="0" width="62" height="62"><path d="M62 0H0V62H62V0Z" fill="white"></path></mask><g mask="url(#mask0_6694_138)"><path d="M31 62C48.1208 62 62 48.1208 62 31C62 13.8792 48.1208 0 31 0C13.8792 0 0 13.8792 0 31C0 48.1208 13.8792 62 31 62Z" fill="#FF0002"></path><path d="M46.4349 26.4874C45.4739 25.5171 44.1099 24.9901 42.4452 24.9901C40.3744 24.9901 38.7872 25.8116 37.8727 27.3554V19.7046H33.0739V40.673H37.8727V33.3012C37.8727 31.5838 38.2323 30.4833 38.7717 29.8354C39.2956 29.1906 40.0303 28.9395 40.827 28.9395C41.5307 28.9395 42.0856 29.1596 42.4762 29.5564C42.8668 29.9687 43.09 30.598 43.09 31.4784V40.6544H47.8888V30.5546C47.8919 28.8372 47.3804 27.4422 46.4349 26.4874Z" fill="white"></path><path d="M24.8527 24.9901C22.7819 24.9901 21.1947 25.8116 20.2802 27.3554V19.7046H15.4814V40.673H20.2802V33.3012C20.2802 31.5838 20.6398 30.4833 21.1792 29.8354C21.7031 29.1906 22.4378 28.9395 23.2345 28.9395C23.9382 28.9395 24.4931 29.1596 24.8837 29.5564C25.2743 29.9687 25.4975 30.598 25.4975 31.4784V40.6544H30.2963V30.5546C30.2963 28.8372 29.7879 27.4422 28.8269 26.4719C27.8814 25.5047 26.5174 24.9901 24.8527 24.9901Z" fill="white"></path></g><mask id="mask1_6694_138" style="mask-type:luminance" maskUnits="userSpaceOnUse" x="81" y="20" width="22" height="22"><path d="M102.784 20.7158V41.2842H82.2158V20.7158H102.784Z" fill="white" stroke="white" stroke-width="0.432099"></path></mask><g mask="url(#mask1_6694_138)"><path d="M82.4375 20.9375L102.6 41.1003" stroke="#1B1B1B" stroke-width="1.2963" stroke-miterlimit="10"></path><path d="M102.6 20.9375L82.4375 41.1003" stroke="#1B1B1B" stroke-width="1.2963" stroke-miterlimit="10"></path></g><path fill-rule="evenodd" clip-rule="evenodd" d="M210.095 41.6963C210.095 42.6121 209.542 43.0786 208.316 43.0786C207.09 43.0786 206.503 42.6121 206.503 41.6963V20.0965H198.938C197.971 20.0965 197.453 19.6127 197.453 18.5932C197.453 17.6083 197.954 17.0898 198.938 17.0898H217.642C218.61 17.0898 219.128 17.5564 219.128 18.5932C219.128 19.5782 218.627 20.0965 217.642 20.0965H210.078V41.6963H210.095Z" fill="#333333"></path><path fill-rule="evenodd" clip-rule="evenodd" d="M230.25 27.181C229.162 25.7467 227.124 25.021 224.43 25.021C222.237 25.021 220.25 25.5048 218.644 26.4034C217.746 26.9218 217.383 27.4056 217.383 27.8721C217.383 28.5633 217.884 29.4619 218.817 29.4619C219.283 29.4619 219.611 29.1854 220.302 28.8225C221.477 28.2005 222.651 27.8376 224.102 27.8376C226.9 27.8376 227.936 29.099 227.936 31.57V32.0884C219.836 32.6759 216.485 34.594 216.485 38.1882C216.485 41.1776 218.679 43.1475 222.478 43.1475C224.844 43.1475 226.761 42.4218 228.143 41.0394V41.9898C228.143 42.7328 228.644 43.0609 229.698 43.0609C230.958 43.0609 231.39 42.5773 231.39 41.6269V31.4664C231.39 29.5483 231.044 28.1313 230.25 27.181ZM227.919 38.8794C226.606 39.9162 225.138 40.4346 223.618 40.4346C221.269 40.4346 220.25 39.3805 220.25 37.9808C220.25 35.7863 222.651 34.8878 227.936 34.3348V38.8794H227.919Z" fill="#333333"></path><path fill-rule="evenodd" clip-rule="evenodd" d="M239.956 41.6961C239.956 42.6119 239.404 43.0783 238.229 43.0783C237.003 43.0783 236.416 42.6119 236.416 41.6961V17.1588C236.416 16.2429 236.968 15.7764 238.143 15.7764C239.369 15.7764 239.956 16.2602 239.956 17.1588V41.6961Z" fill="#333333"></path><path fill-rule="evenodd" clip-rule="evenodd" d="M258.401 27.181C257.313 25.7467 255.275 25.021 252.581 25.021C250.388 25.021 248.402 25.5048 246.795 26.4034C245.915 26.9218 245.535 27.4056 245.535 27.8721C245.535 28.5633 246.053 29.4619 246.968 29.4619C247.434 29.4619 247.78 29.1854 248.453 28.8225C249.645 28.2005 250.802 27.8376 252.253 27.8376C255.051 27.8376 256.104 29.099 256.104 31.57V32.0884C247.987 32.6759 244.654 34.594 244.654 38.1882C244.654 41.1776 246.847 43.1475 250.664 43.1475C253.013 43.1475 254.93 42.4218 256.312 41.0394V41.9898C256.312 42.7328 256.83 43.0609 257.866 43.0609C259.127 43.0609 259.558 42.5773 259.558 41.6269V31.4664C259.541 29.5483 259.213 28.1313 258.401 27.181ZM256.104 38.8794C254.792 39.9162 253.307 40.4346 251.804 40.4346C249.438 40.4346 248.419 39.3805 248.419 37.9808C248.419 35.7863 250.819 34.8878 256.121 34.3348V38.8794H256.104Z" fill="#333333"></path><path fill-rule="evenodd" clip-rule="evenodd" d="M267.33 26.542V27.8035C268.435 26.1792 270.491 25.0732 273.375 25.0732C276.034 25.0732 277.675 25.9027 278.78 27.3715C279.575 28.4428 280.006 30.0326 280.006 32.0543V41.6964C280.006 42.6123 279.454 43.079 278.28 43.079C277.053 43.079 276.466 42.6123 276.466 41.6964V32.5727C276.466 31.3804 276.259 30.2226 275.62 29.3932C274.895 28.4428 273.755 28.0108 272.2 28.0108C269.955 28.0108 268.401 28.9958 267.52 30.2745V41.6964C267.52 42.6123 266.967 43.079 265.793 43.079C264.567 43.079 263.979 42.6123 263.979 41.6964V26.542C263.979 25.6262 264.532 25.1597 265.706 25.1597C266.898 25.1424 267.364 25.6953 267.33 26.542Z" fill="#333333"></path><path fill-rule="evenodd" clip-rule="evenodd" d="M297.432 41.1776C297.432 41.6096 297.225 42.007 296.586 42.3699C295.653 42.8883 294.255 43.1992 292.821 43.1992C290.334 43.1992 288.762 42.2835 287.916 40.8147C287.156 39.5015 287.122 37.9117 287.122 36.1319V28.3041H284.756C283.789 28.3041 283.271 27.8721 283.271 26.9217C283.271 25.9713 283.771 25.4875 284.756 25.4875H287.122V21.1675C287.122 20.2517 287.674 19.7852 288.849 19.7852C290.075 19.7852 290.662 20.269 290.662 21.1675V25.4875H295.481C296.448 25.4875 296.966 25.9195 296.966 26.8699C296.966 27.8203 296.465 28.3041 295.481 28.3041H290.662V36.1319C290.662 37.1687 290.662 38.4301 291.128 39.2768C291.508 39.9507 292.234 40.3481 293.322 40.3481C293.961 40.3481 294.635 40.1926 295.101 39.9853C295.515 39.8298 295.826 39.6742 296.068 39.6742C297.052 39.6742 297.432 40.6592 297.432 41.1776Z" fill="#333333"></path><path fill-rule="evenodd" clip-rule="evenodd" d="M303.373 25.142C302.199 25.142 301.664 25.6258 301.664 26.5244V41.696C301.664 42.5946 302.233 43.0782 303.477 43.0782C304.669 43.0782 305.204 42.5946 305.204 41.696V26.5244C305.204 25.6258 304.617 25.142 303.373 25.142ZM303.425 17.1587C302.078 17.1587 301.094 18.0745 301.094 19.3187C301.094 20.5801 302.078 21.4959 303.425 21.4959C304.79 21.4959 305.757 20.5974 305.757 19.3187C305.757 18.0918 304.79 17.1587 303.425 17.1587Z" fill="#333333"></path><path fill-rule="evenodd" clip-rule="evenodd" d="M322.648 26.369C323.356 25.4531 323.909 25.1421 325.187 25.1421C326.327 25.1421 326.741 25.4531 326.741 25.9716C326.741 26.4035 326.396 26.8873 325.947 27.4058L320.489 33.9548L326.24 40.8149C326.672 41.3333 327 41.7653 327 42.1973C327 42.7502 326.62 43.0784 325.36 43.0784C324.047 43.0784 323.46 42.7675 322.734 41.8517L318.123 36.1321L313.564 41.8517C312.838 42.7675 312.303 43.0784 311.025 43.0784C309.885 43.0784 309.453 42.7675 309.453 42.1973C309.453 41.7653 309.799 41.3333 310.213 40.8149L315.878 33.9894L310.351 27.4058C309.937 26.8873 309.592 26.4208 309.592 25.9716C309.592 25.4531 310.006 25.1421 311.232 25.1421C312.545 25.1421 313.132 25.4531 313.857 26.369L318.296 31.8121L322.648 26.369Z" fill="#333333"></path><path d="M169.406 5.58154C167.87 5.58154 166.695 6.08267 164.45 7.44779C163.293 8.15627 162.913 8.36362 162.36 8.64008C160.392 9.53865 158.492 10.1435 156.661 10.4545C155.987 10.5754 155.366 10.6445 154.796 10.6964C154.398 10.7309 154.122 10.7309 153.829 10.7309H153.812C153.483 10.7309 153.224 10.7309 152.827 10.6964C152.257 10.6618 151.635 10.5927 150.962 10.4717C149.148 10.1435 147.249 9.57318 145.297 8.64008C144.744 8.38089 144.399 8.17353 143.242 7.46505C140.979 6.09993 139.788 5.58154 138.233 5.58154C135.712 5.58154 133.449 6.58379 131.55 8.4673L131.411 8.58824C129.546 10.5236 128.527 12.77 128.527 15.3274C128.527 16.8653 129.028 18.023 130.41 20.2694C131.118 21.4444 131.325 21.8073 131.584 22.3603C132.5 24.3474 133.104 26.2655 133.415 28.0799C133.518 28.7538 133.605 29.3759 133.639 29.9288C133.674 30.3263 133.674 30.5855 133.674 30.8965C133.674 31.173 133.674 31.4667 133.639 31.8469C133.588 32.4171 133.536 33.0565 133.397 33.7131C133.087 35.5275 132.5 37.4628 131.584 39.4155L131.377 39.8302C131.135 40.2795 130.98 40.5732 130.392 41.5236C129.028 43.7701 128.527 44.9278 128.527 46.4485C128.527 48.9712 129.529 51.2174 131.411 53.1355L131.515 53.2393C133.415 55.1402 135.694 56.1597 138.233 56.1597C139.857 56.1597 141.152 55.5892 143.501 54.1551C144.675 53.4296 144.831 53.3258 145.28 53.1011C147.249 52.2025 149.166 51.6152 150.979 51.2867C151.653 51.1829 152.274 51.0968 152.844 51.0447C153.241 51.0103 153.518 51.0103 153.812 51.0103C154.088 51.0103 154.381 51.0103 154.761 51.0447C155.331 51.0968 155.936 51.1485 156.609 51.2867C158.422 51.5976 160.322 52.168 162.308 53.0838L162.326 53.1011C162.775 53.343 162.93 53.4468 164.104 54.1551C166.454 55.5892 167.749 56.1597 169.389 56.1597C171.894 56.1597 174.122 55.1746 176.039 53.2909C177.921 51.3732 179.113 48.9539 179.113 46.4309C179.113 44.8929 178.595 43.718 177.23 41.4717C176.505 40.314 176.315 39.9338 176.039 39.3809C175.141 37.411 174.553 35.4929 174.225 33.6786C174.122 32.9874 174.035 32.3826 173.983 31.8123C173.966 31.4149 173.949 31.1384 173.949 30.8447C173.949 30.5336 173.966 30.2572 173.983 29.877C174.035 29.3067 174.087 28.6847 174.225 28.028C174.536 26.1964 175.123 24.2783 176.039 22.3084L176.09 22.222C176.332 21.6863 176.54 21.3407 177.23 20.2175C178.595 17.9712 179.113 16.7962 179.113 15.2755C179.113 12.7354 178.094 10.489 176.228 8.57098L176.125 8.4673C174.208 6.60106 171.945 5.58154 169.406 5.58154Z" fill="url(#paint0_linear_6694_138)"></path><path d="M154.018 0H153.846C151.445 0.0172798 149.251 0.760314 147.525 2.50558C146.488 3.55964 146.022 5.04572 145.642 6.54905L146.177 6.82551C148.716 8.01785 151.497 8.70902 153.828 8.70902C154.933 8.70902 157.87 8.51893 161.548 6.80825L162.222 6.46264C161.842 4.97658 161.375 3.52508 160.356 2.48829C158.595 0.760314 156.402 0.0172798 154.018 0Z" fill="#2A7FEE" fill-opacity="0.15"></path><path d="M129.546 22.6885C128.026 23.0686 126.54 23.5179 125.487 24.5719C123.76 26.2999 123.017 28.4945 123 30.8964V31.0519C123.017 33.4538 123.76 35.6656 125.487 37.4109C126.523 38.4477 127.956 38.9488 129.442 39.3289L129.805 38.6377C131.566 34.8016 131.704 31.7604 131.704 30.9136C131.704 29.825 131.514 26.8875 129.805 23.1896L129.546 22.6885Z" fill="#2A7FEE" fill-opacity="0.15"></path><path d="M178.128 22.6367L177.835 23.1897C176.125 26.8703 175.952 29.8078 175.952 30.8965C175.952 31.7432 176.09 34.819 177.852 38.6205L178.215 39.3117C179.751 38.9316 181.271 38.4823 182.325 37.411C184.052 35.6657 184.795 33.4884 184.812 31.0865V30.931C184.795 28.5119 184.069 26.3001 182.325 24.5548C181.254 23.4834 179.7 23.0342 178.128 22.6367Z" fill="#2A7FEE" fill-opacity="0.15"></path><path d="M153.811 53.0835C152.964 53.0835 149.959 53.2217 146.177 54.9495L145.521 55.3297C145.918 56.8676 146.401 58.3884 147.49 59.4772C149.217 61.2223 151.41 61.9654 153.811 61.9827L153.983 61.9999C156.384 61.9826 158.56 61.2395 160.287 59.4945C161.341 58.44 161.789 56.937 162.169 55.4162C161.91 55.2608 161.651 55.1054 161.41 54.9844C157.662 53.2217 154.657 53.0835 153.811 53.0835Z" fill="#2A7FEE" fill-opacity="0.15"></path><path fill-rule="evenodd" clip-rule="evenodd" d="M161.703 22.9128H155.934V41.6095C155.934 42.6636 155.278 43.1991 153.931 43.1991C152.584 43.1991 151.928 42.6463 151.928 41.6095V22.9128H146.159C145.106 22.9128 144.57 22.3426 144.57 21.133C144.57 19.9752 145.123 19.3877 146.159 19.3877H161.686C162.739 19.3877 163.274 19.9752 163.274 21.133C163.309 22.3426 162.756 22.9128 161.703 22.9128Z" fill="white"></path><defs><linearGradient id="paint0_linear_6694_138" x1="131.238" y1="8.29585" x2="176.288" y2="53.3215" gradientUnits="userSpaceOnUse"><stop stop-color="#6D44D4"></stop><stop offset="1" stop-color="#2A7FEE"></stop></linearGradient></defs></svg> 