<svg width="212" height="208" viewBox="0 0 212 208" fill="none" xmlns="http://www.w3.org/2000/svg">
<path d="M38.382 91.0504V192.16L38.0747 192.518L38.382 192.773V208H0V58.7188L38.382 91.0504Z" fill="#7AB800"/>
<path d="M211.101 208H172.719V192.773L173.027 192.518L172.719 192.16V91.0504L211.101 58.7188V208Z" fill="#7AB800"/>
<path d="M153.52 176.575L115.827 208.001H115.138V139.55L153.52 107.219V176.575Z" fill="#11AFCC"/>
<path d="M95.9465 139.55V208.001H95.2568L57.5645 176.575V107.219L95.9465 139.55Z" fill="#11AFCC"/>
<path d="M95.953 0V114.687L57.5718 82.356V37.8213H0V0H95.953Z" fill="#183833"/>
<path d="M211.103 37.8213H153.531V82.356L115.144 114.687V0H211.103V37.8213Z" fill="#183833"/>
</svg>
