<svg preserveAspectRatio="none" width="100%" height="100%" overflow="visible" style="display: block;" viewBox="0 0 64 64" fill="none" xmlns="http://www.w3.org/2000/svg">
<g id="cloud-cross">
<path id="Vector" opacity="0.4" d="M57.9733 31.3081C56.3467 25.9748 52.2933 22.1348 47.2 20.9881C45.7067 14.3214 41.6 9.54811 35.7867 7.73478C29.44 5.78811 22.08 7.68144 17.4667 12.5081C13.3867 16.7481 12.0533 22.5881 13.6267 28.8014C7.94667 30.1881 5.33333 35.1481 5.33333 39.6281C5.33333 44.6414 8.61333 50.2681 15.92 50.7748H22.6667V43.7614C22.6667 40.3748 24.6933 38.3481 28.08 38.3481H35.92C39.3067 38.3481 41.3333 40.3748 41.3333 43.7614V50.7748H43.4933C43.52 50.7748 43.5733 50.7748 43.6 50.7748C47.3867 50.7748 51.0133 49.3614 53.7867 46.8281C58.1333 43.0414 59.7333 37.0948 57.9733 31.3081Z" fill="var(--fill-0, white)"/>
<g id="Vector_2" opacity="0">
</g>
<path id="Subtract" d="M35.9189 38.375C39.3055 38.375 41.3329 40.4016 41.333 43.7881V51.6279C41.333 55.0146 39.3056 57.042 35.9189 57.042H28.0791C24.6926 57.0419 22.666 55.0145 22.666 51.6279V43.7881C22.6661 40.4016 24.6927 38.3751 28.0791 38.375H35.9189ZM33.0605 41.5391C32.5114 40.9902 31.6418 40.9553 31.0527 41.4355L30.9395 41.5391L28.3672 44.1104L27.082 45.3965C26.4964 45.9822 26.4965 46.9318 27.082 47.5176C27.6678 48.1032 28.6174 48.1032 29.2031 47.5176L30.5 46.2207V52.8857C30.5002 53.714 31.1717 54.3857 32 54.3857C32.8282 54.3856 33.4998 53.7139 33.5 52.8857V46.2207L34.7959 47.5176C35.3817 48.1034 36.3322 48.1034 36.918 47.5176C37.5033 46.9319 37.5032 45.9822 36.918 45.3965L33.0605 41.5391Z" fill="var(--fill-0, white)"/>
</g>
</svg>
