<svg width="100" height="32" viewBox="0 0 100 32" fill="none" xmlns="http://www.w3.org/2000/svg">
<path d="M5.84297 14.0087V29.5624L5.79618 29.6175L5.84297 29.6567V31.9991H0V9.03516L5.84297 14.0087Z" fill="#7AB800"/>
<path d="M32.1364 31.9991H26.2934V29.6567L26.3402 29.6175L26.2934 29.5624V14.0087L32.1364 9.03516V31.9991Z" fill="#7AB800"/>
<path d="M23.3711 27.1651L17.6331 31.9995H17.5281V21.4697L23.3711 16.4961V27.1651Z" fill="#11AFCC"/>
<path d="M14.6066 21.4697V31.9995H14.5017L8.76367 27.1651V16.4961L14.6066 21.4697Z" fill="#11AFCC"/>
<path d="M14.6071 0V17.6424L8.76427 12.6688V5.81806H0V0H14.6071Z" fill="#183833"/>
<path d="M32.1366 5.81806H23.3724V12.6688L17.5285 17.6424V0H32.1366V5.81806Z" fill="#183833"/>
<path d="M43.7381 12.0514H46.2395V19.9762H43.7381V12.0514ZM40.2988 10.957H49.6788V13.1697H40.2988V10.957Z" fill="#183833"/>
<path d="M51.0646 18.2445V16.2363H57.2819V18.2445H51.0646ZM55.8629 10.957L59.9636 19.9762H57.3059L53.8666 12.0153H54.5881L51.1368 19.9762H48.4791L52.5799 10.957H55.8629Z" fill="#183833"/>
<path d="M63.3071 10.957V18.8699L62.1887 17.7635H68.935V19.9762H60.8178V10.957H63.3071Z" fill="#183833"/>
<path d="M77.7098 14.5647V16.3685H70.8552V14.5647H77.7098ZM72.2141 19.0863L71.2039 17.9559H78.1066V19.9762H69.7248V10.957H78.0465V12.9773H71.2039L72.2141 11.8469V19.0863Z" fill="#183833"/>
<path d="M87.9068 18.2325L87.1372 18.3888V10.957H89.5543V19.9762H86.4157L81.2086 12.5564L81.9662 12.4001V19.9762H79.549V10.957H82.7719L87.9068 18.2325Z" fill="#183833"/>
<path d="M94.0601 12.0514H96.5614V19.9762H94.0601V12.0514ZM90.6208 10.957H100.001V13.1697H90.6208V10.957Z" fill="#183833"/>
<path d="M53.4789 22.9826V32.0018H51.1098V23.8725L51.639 23.9326L48.1515 32.0018H45.6262L42.1267 23.9567L42.6679 23.8966V32.0018H40.2988V22.9826H44.147L47.3819 30.7271H46.4199L49.6307 22.9826H53.4789Z" fill="#183833"/>
<path d="M55.1664 22.9826H57.6557V32.0018H55.1664V22.9826Z" fill="#183833"/>
<path d="M67.6932 30.2581L66.9236 30.4144V22.9826H69.3407V32.0018H66.202L60.995 24.582L61.7526 24.4257V32.0018H59.3354V22.9826H62.5583L67.6932 30.2581Z" fill="#183833"/>
<path d="M75.518 22.9826C76.5843 22.9826 77.5183 23.171 78.32 23.5478C79.1297 23.9166 79.755 24.4417 80.196 25.1232C80.6449 25.7966 80.8694 26.5863 80.8694 27.4922C80.8694 28.3981 80.6449 29.1918 80.196 29.8733C79.755 30.5467 79.1297 31.0718 78.32 31.4486C77.5183 31.8174 76.5843 32.0018 75.518 32.0018H71.0205V22.9826H75.518ZM73.4977 30.9556L72.3072 29.7891H75.7104C76.2476 29.7891 76.7126 29.6969 77.1054 29.5125C77.5063 29.3201 77.8149 29.0515 78.0314 28.7068C78.2478 28.3621 78.3561 27.9572 78.3561 27.4922C78.3561 27.0192 78.2478 26.6144 78.0314 26.2776C77.8149 25.9329 77.5063 25.6683 77.1054 25.4839C76.7126 25.2915 76.2476 25.1953 75.7104 25.1953H72.3072L73.4977 24.0288V30.9556Z" fill="#183833"/>
</svg>
