<svg preserveAspectRatio="none" width="100%" height="100%" overflow="visible" style="display: block;" viewBox="0 0 64 64" fill="none" xmlns="http://www.w3.org/2000/svg">
<g id="people">
<g id="Vector" opacity="0">
</g>
<path id="Vector_2" opacity="0.4" d="M46.7468 20.72C46.5601 20.6933 46.3734 20.6933 46.1868 20.72C42.0534 20.5867 38.7734 17.2 38.7734 13.04C38.7734 8.8 42.2134 5.33333 46.4801 5.33333C50.7201 5.33333 54.1868 8.77333 54.1868 13.04C54.1601 17.2 50.8801 20.5867 46.7468 20.72Z" fill="var(--fill-0, white)"/>
<path id="Vector_3" opacity="0.4" d="M55.439 39.1997C52.4523 41.1997 48.2656 41.9464 44.399 41.4397C45.4123 39.2531 45.9456 36.8264 45.9723 34.2664C45.9723 31.5998 45.3856 29.0664 44.2656 26.8531C48.2123 26.3198 52.399 27.0664 55.4123 29.0664C59.6256 31.8397 59.6256 36.3997 55.439 39.1997Z" fill="var(--fill-0, white)"/>
<path id="Vector_4" opacity="0.4" d="M17.1744 20.72C17.361 20.6933 17.5477 20.6933 17.7344 20.72C21.8677 20.5867 25.1477 17.2 25.1477 13.04C25.1477 8.8 21.7077 5.33333 17.441 5.33333C13.201 5.33333 9.73438 8.77333 9.73438 13.04C9.76104 17.2 13.041 20.5867 17.1744 20.72Z" fill="var(--fill-0, white)"/>
<path id="Vector_5" opacity="0.4" d="M17.467 34.267C17.467 36.8536 18.027 39.307 19.0403 41.5203C15.2803 41.9203 11.3603 41.1203 8.48031 39.227C4.26698 36.427 4.26698 31.8669 8.48031 29.0669C11.3336 27.1469 15.3603 26.3736 19.147 26.8003C18.0536 29.0403 17.467 31.5736 17.467 34.267Z" fill="var(--fill-0, white)"/>
<path id="Vector_6" d="M32.3195 42.32C32.1061 42.2933 31.8661 42.2933 31.6261 42.32C26.7195 42.16 22.7995 38.1333 22.7995 33.1733C22.7995 28.1067 26.8795 24 31.9728 24C37.0395 24 41.1461 28.1067 41.1461 33.1733C41.1461 38.1333 37.2528 42.16 32.3195 42.32Z" fill="var(--fill-0, white)"/>
<path id="Vector_7" d="M23.6528 47.8397C19.6261 50.533 19.6261 54.9597 23.6528 57.6264C28.2395 60.693 35.7595 60.693 40.3462 57.6264C44.3728 54.933 44.3728 50.5064 40.3462 47.8397C35.7862 44.773 28.2661 44.773 23.6528 47.8397Z" fill="var(--fill-0, white)"/>
</g>
</svg>
